<svg xmlns="http://www.w3.org/2000/svg" viewBox="0 0 855 768" width="24" height="24"><path d="M16 144h563a16 16 0 1 0 0-32H16a16 16 0 1 0 0 32zm41 112a16 16 0 1 0 0 32h480a16 16 0 1 0 0-32H57zm44 144a16 16 0 1 0 0 32h403a16 16 0 1 0 0-32H101zm378 72H92l-20-80h591a16 16 0 1 0 0-32H76L56 280h682l-120 480H92l-20-80h407a16 16 0 1 0 0-32zm-353 296a56 56 0 1 0 0-112 56 56 0 0 0 0 112zm312 0a56 56 0 1 0 0-112 56 56 0 0 0 0 112zm432-768c-56 0-104 38-116 92L544 656H92l-20-80h407a16 16 0 1 0 0-32H76L56 280h682l-120 480H92l-20-80h407a16 16 0 1 0 0-32zm0 0" fill="#444"/></svg>